<svg width="367" height="358" viewBox="0 0 367 358" fill="none" xmlns="http://www.w3.org/2000/svg">
<path d="M109.531 0H102.55H80.0554V12.0144H109.531V0Z" fill="#D2F0FF"/>
<path d="M316.531 178.967H120.531V232.466C123.079 232.466 140.697 222.653 142.581 221.954C150.839 218.773 205.363 194.635 213.542 190.981C219.93 188.059 222.772 188.937 228.9 192.334C233.555 193.984 286.671 217.696 288.367 218.564C290.529 219.781 310.129 230.731 316.531 232.967V191.919V178.967Z" fill="#D2F0FF"/>
<path d="M148.531 108.967C193.741 108.967 238.951 108.967 285.531 108.967C285.531 115.567 285.531 122.167 285.531 128.967C240.321 128.967 195.111 128.967 148.531 128.967C148.531 122.367 148.531 115.767 148.531 108.967Z" fill="#D2F0FF"/>
<path d="M77.1392 82.0146C89.1486 82.0146 101.158 82.0146 113.531 82.0146C113.531 86.3046 113.531 90.5946 113.531 95.0146C111.487 95.0146 109.443 95.0146 107.337 95.0146C107.366 95.7942 107.395 96.5738 107.425 97.377C107.7 104.761 107.974 112.146 108.245 119.53C108.385 123.326 108.525 127.121 108.667 130.917C108.804 134.586 108.94 138.256 109.074 141.926C109.125 143.319 109.177 144.712 109.23 146.105C109.304 148.071 109.375 150.038 109.447 152.004C109.488 153.119 109.529 154.234 109.572 155.382C109.682 159.924 109.66 164.47 109.66 169.015C100.206 169.015 90.7514 169.015 81.0107 169.015C81.2662 163.405 81.5217 157.795 81.785 152.015C80.3528 153.62 78.9262 155.234 77.5218 156.88C75.5906 159.015 75.5906 159.015 73.4053 160.915C69.6174 164.514 67.0598 167.307 66.3121 173.386C65.9619 178.473 66.0496 183.54 66.1538 188.64C66.1592 190.425 66.1608 192.21 66.1584 193.995C66.1608 198.337 66.2155 202.674 66.299 207.015C62.9773 207.015 59.6555 207.015 56.2331 207.015C56.0796 200.592 55.9674 194.171 55.8929 187.746C55.8618 185.562 55.8196 183.379 55.7658 181.196C55.6904 178.05 55.6555 174.908 55.6282 171.761C55.5962 170.791 55.5643 169.821 55.5313 168.821C55.5293 164.774 55.5502 162.1 57.5731 158.886C59.1335 157.114 60.7293 155.557 62.4275 154.015C65.2328 150.737 65.2328 150.737 67.9922 147.396C70.076 144.85 72.1427 142.587 74.5259 140.519C78.2036 137.134 81.2299 134.123 82.2844 128.218C82.8505 121.828 82.7593 115.49 82.585 109.073C82.5453 104.35 82.9142 99.7014 83.3336 95.0146C81.2894 95.0146 79.2453 95.0146 77.1392 95.0146C77.1392 90.7246 77.1392 86.4346 77.1392 82.0146Z" fill="#D2F0FF"/>
<path d="M126.531 137.967C185.931 137.967 245.331 137.967 306.531 137.967C306.531 141.927 306.531 145.887 306.531 149.967C247.131 149.967 187.731 149.967 126.531 149.967C126.531 146.007 126.531 142.047 126.531 137.967Z" fill="#D2F0FF"/>
<path d="M85.1239 12.0146C91.6323 12.0146 98.1407 12.0146 104.846 12.0146C106.658 57.1377 106.658 57.1377 106.424 78.0146C98.8744 78.0146 91.3246 78.0146 83.5461 78.0146C83.4505 63.6086 83.8282 49.2798 84.335 34.8896C84.4113 32.6592 84.4873 30.4287 84.563 28.1982C84.7463 22.8035 84.9352 17.4091 85.1239 12.0146Z" fill="#D2F0FF"/>
<path d="M230.531 74.9668H225.836H203.531V103.967H230.531V74.9668Z" fill="#D2F0FF"/>
<path d="M221.192 197.062C225.585 197.79 228.94 198.663 232.967 200.836C236.893 202.866 240.812 204.762 244.825 206.371C250.93 208.828 256.993 211.496 263.057 214.169C272.196 218.196 272.196 218.197 281.372 222.031C285.366 223.655 289.318 225.424 293.261 227.303C295.887 228.545 298.524 229.709 301.178 230.816C301.812 231.081 302.446 231.345 303.1 231.618C304.34 232.132 305.582 232.642 306.824 233.146C311.628 235.137 315.42 236.752 318.387 243.179C319.766 247.405 319.538 251.806 319.483 256.418C319.484 257.526 319.484 258.634 319.484 259.775C319.482 263.346 319.456 266.916 319.43 270.486C319.425 272.697 319.421 274.908 319.419 277.118C319.401 285.297 319.354 293.475 319.311 301.653C319.206 329.081 319.206 329.081 319.1 357.062H221.192V197.062Z" fill="#D2F0FF"/>
<path d="M140.531 149.951C143.171 149.951 145.811 149.951 148.531 149.951C148.531 159.521 148.531 169.091 148.531 178.951C145.891 178.951 143.251 178.951 140.531 178.951C140.531 169.381 140.531 159.811 140.531 149.951Z" fill="#D2F0FF"/>
<path d="M284.531 149.951C287.171 149.951 289.811 149.951 292.531 149.951C292.531 159.521 292.531 169.091 292.531 178.951C289.891 178.951 287.251 178.951 284.531 178.951C284.531 169.381 284.531 159.811 284.531 149.951Z" fill="#D2F0FF"/>
<path d="M48.5312 211.015C56.4512 211.015 64.3713 211.015 72.5313 211.015C72.5313 213.655 72.5313 216.295 72.5313 219.015C64.6113 219.015 56.6912 219.015 48.5312 219.015C48.5312 216.375 48.5312 213.735 48.5312 211.015Z" fill="#D2F0FF"/>
<path d="M217.125 357.062H114.992C114.987 355.823 114.998 342.585 114.992 341.307C114.941 329.624 114.903 317.941 114.878 306.258C114.865 300.252 114.847 294.246 114.818 288.24C114.791 282.444 114.775 276.646 114.769 270.85C114.764 268.639 114.755 266.428 114.741 264.217C114.723 261.119 114.721 258.022 114.722 254.924L114.693 252.155C114.716 246.621 115.196 243.447 117.545 239.062C120.264 235.609 123.517 234.831 126.855 233.688C130.932 232.266 134.958 230.669 138.974 228.867C147.057 225.263 155.232 222.215 163.392 219.078C167.505 217.496 170.158 215.905 174.271 214.312C174.959 214.046 179.338 212.047 180.039 211.775C186.488 209.277 185.628 208.728 192.061 206.125L194.348 205.2C197.887 203.766 201.425 202.324 204.962 200.873L208.719 199.344L210.425 198.636L211.987 198.002L213.334 197.448C214.589 197.062 214.589 197.062 217.125 197.062V357.062Z" fill="#D2F0FF"/>
<path d="M116.439 187.015H110.229C110.434 194.803 110.641 202.591 110.85 210.379C110.92 213.02 110.99 215.662 111.06 218.304C111.392 230.95 111.727 243.588 112.318 256.219C112.597 262.364 112.649 268.486 112.606 274.64L112.596 277.718C112.587 280.15 116.455 354.582 116.439 357.015H0.03125C0.03125 317.745 0 266.475 0 226.015H28.0312V249.015H27.9453V286.015H38.0371V268.015H53.5625L53.5498 264.223C53.5358 259.578 53.5269 254.934 53.5195 250.29C53.5156 248.28 53.5106 246.27 53.5039 244.261C53.4945 241.371 53.4898 238.482 53.4863 235.593L53.4746 232.871L53.4736 230.324L53.4688 228.09C53.5621 226.014 53.4863 222.015 53.4863 222.015H67.5312C67.5313 222.018 67.6303 264.655 67.5352 286.015H77.626L77.6143 282.913C77.5885 273.155 77.6893 263.411 77.915 253.657C77.9657 251.449 78.0126 249.241 78.0586 247.032C78.2414 238.673 78.5647 230.348 78.9932 222.003C79.3012 215.367 79.4521 208.727 79.6025 202.083L79.6152 201.515C79.6489 200.094 79.6828 198.673 79.7168 197.253C79.7982 193.84 79.8775 190.427 79.9551 187.015H73.7451V175.015H116.439V187.015ZM42.6943 274.015V286.015H52.7861V274.015H42.6943Z" fill="#D2F0FF"/>
</svg>
