<svg width="367" height="358" viewBox="0 0 367 358" fill="none" xmlns="http://www.w3.org/2000/svg">
<path d="M109.531 0H102.55H80.0554V12.0144H109.531V0Z" fill="#D2F0FF"/>
<path d="M362.531 179.015H122.531V232.451C125.651 232.451 147.224 222.649 149.531 221.951C159.643 218.774 226.407 194.664 236.422 191.015C244.244 188.096 247.724 188.973 255.228 192.366C260.928 194.015 325.967 217.699 328.044 218.565C330.691 219.781 354.691 230.718 362.531 232.951V191.951V179.015Z" fill="#D2F0FF"/>
<path d="M156.531 109.015C211.971 109.015 267.411 109.015 324.531 109.015C324.531 115.615 324.531 122.215 324.531 129.015C269.091 129.015 213.651 129.015 156.531 129.015C156.531 122.415 156.531 115.815 156.531 109.015Z" fill="#D2F0FF"/>
<path d="M77.1392 82.0146C89.1486 82.0146 101.158 82.0146 113.531 82.0146C113.531 86.3046 113.531 90.5946 113.531 95.0146C111.487 95.0146 109.443 95.0146 107.337 95.0146C107.366 95.7942 107.395 96.5738 107.425 97.377C107.7 104.761 107.974 112.146 108.245 119.53C108.385 123.326 108.525 127.121 108.667 130.917C108.804 134.586 108.94 138.256 109.074 141.926C109.125 143.319 109.177 144.712 109.23 146.105C109.304 148.071 109.375 150.038 109.447 152.004C109.488 153.119 109.529 154.234 109.572 155.382C109.682 159.924 109.66 164.47 109.66 169.015C100.206 169.015 90.7514 169.015 81.0107 169.015C81.2662 163.405 81.5217 157.795 81.785 152.015C80.3528 153.62 78.9262 155.234 77.5218 156.88C75.5906 159.015 75.5906 159.015 73.4053 160.915C69.6174 164.514 67.0598 167.307 66.3121 173.386C65.9619 178.473 66.0496 183.54 66.1538 188.64C66.1592 190.425 66.1608 192.21 66.1584 193.995C66.1608 198.337 66.2155 202.674 66.299 207.015C62.9773 207.015 59.6555 207.015 56.2331 207.015C56.0796 200.592 55.9674 194.171 55.8929 187.746C55.8618 185.562 55.8196 183.379 55.7658 181.196C55.6904 178.05 55.6555 174.908 55.6282 171.761C55.5962 170.791 55.5643 169.821 55.5313 168.821C55.5293 164.774 55.5502 162.1 57.5731 158.886C59.1335 157.114 60.7293 155.557 62.4275 154.015C65.2328 150.737 65.2328 150.737 67.9922 147.396C70.076 144.85 72.1427 142.587 74.5259 140.519C78.2036 137.134 81.2299 134.123 82.2844 128.218C82.8505 121.828 82.7593 115.49 82.585 109.073C82.5453 104.35 82.9142 99.7014 83.3336 95.0146C81.2894 95.0146 79.2453 95.0146 77.1392 95.0146C77.1392 90.7246 77.1392 86.4346 77.1392 82.0146Z" fill="#D2F0FF"/>
<path d="M130.531 138.015C203.131 138.015 275.731 138.015 350.531 138.015C350.531 141.975 350.531 145.935 350.531 150.015C277.931 150.015 205.331 150.015 130.531 150.015C130.531 146.055 130.531 142.095 130.531 138.015Z" fill="#D2F0FF"/>
<path d="M85.1239 12.0146C91.6323 12.0146 98.1407 12.0146 104.846 12.0146C106.658 57.1377 106.658 57.1377 106.424 78.0146C98.8744 78.0146 91.3246 78.0146 83.5461 78.0146C83.4505 63.6086 83.8282 49.2798 84.335 34.8896C84.4113 32.6592 84.4873 30.4287 84.563 28.1982C84.7463 22.8035 84.9352 17.4091 85.1239 12.0146Z" fill="#D2F0FF"/>
<path d="M258.531 75.0146H252.444H223.531V104.015H258.531V75.0146Z" fill="#D2F0FF"/>
<path d="M213.531 154.015C227.721 154.015 241.911 154.015 256.531 154.015C256.531 160.285 256.531 166.555 256.531 173.015C242.341 173.015 228.151 173.015 213.531 173.015C213.531 166.745 213.531 160.475 213.531 154.015Z" fill="#D2F0FF"/>
<path d="M279.531 154.015C289.761 154.015 299.991 154.015 310.531 154.015C310.531 160.285 310.531 166.555 310.531 173.015C300.301 173.015 290.071 173.015 279.531 173.015C279.531 166.745 279.531 160.475 279.531 154.015Z" fill="#D2F0FF"/>
<path d="M246.108 197.015C251.487 197.742 255.597 198.616 260.527 200.788C265.335 202.818 270.135 204.714 275.049 206.323C282.525 208.78 289.948 211.448 297.374 214.121C308.566 218.148 308.566 218.149 319.803 221.983C324.694 223.607 329.533 225.376 334.361 227.255C337.578 228.497 340.806 229.662 344.056 230.769C344.832 231.033 345.609 231.298 346.409 231.57C347.928 232.085 349.449 232.594 350.971 233.098C356.853 235.089 361.496 236.704 365.129 243.131C366.818 247.357 366.54 251.759 366.473 256.37C366.473 257.478 366.473 258.586 366.474 259.728C366.471 263.298 366.439 266.868 366.406 270.438C366.4 272.649 366.397 274.86 366.395 277.07C366.373 285.249 366.315 293.427 366.262 301.605C366.134 329.033 366.133 329.033 366.003 357.015H246.108V197.015Z" fill="#D2F0FF"/>
<path d="M147.531 154.015C154.131 154.015 160.731 154.015 167.531 154.015C167.531 160.285 167.531 166.555 167.531 173.015C160.931 173.015 154.331 173.015 147.531 173.015C147.531 166.745 147.531 160.475 147.531 154.015Z" fill="#D2F0FF"/>
<path d="M173.126 154.015C173.883 154.02 174.64 154.025 175.42 154.03C176.236 154.034 177.053 154.037 177.895 154.04C179.184 154.053 179.184 154.053 180.5 154.065C181.794 154.072 181.794 154.072 183.114 154.079C185.253 154.091 187.392 154.109 189.531 154.127C189.531 160.36 189.531 166.593 189.531 173.015C183.29 173.015 177.048 173.015 170.617 173.015C170.602 170.083 170.586 167.151 170.57 164.13C170.563 163.205 170.556 162.28 170.549 161.327C170.547 160.603 170.545 159.879 170.543 159.133C170.539 158.388 170.535 157.644 170.531 156.877C170.665 154.144 171.05 154.148 173.126 154.015Z" fill="#D2F0FF"/>
<path d="M314.531 154.015C320.801 154.015 327.071 154.015 333.531 154.015C333.531 160.285 333.531 166.555 333.531 173.015C327.261 173.015 320.991 173.015 314.531 173.015C314.531 166.745 314.531 160.475 314.531 154.015Z" fill="#D2F0FF"/>
<path d="M260.531 154.015C266.141 154.015 271.751 154.015 277.531 154.015C277.531 160.285 277.531 166.555 277.531 173.015C271.921 173.015 266.311 173.015 260.531 173.015C260.531 166.745 260.531 160.475 260.531 154.015Z" fill="#D2F0FF"/>
<path d="M193.531 154.015C199.141 154.015 204.751 154.015 210.531 154.015C210.531 160.285 210.531 166.555 210.531 173.015C204.921 173.015 199.311 173.015 193.531 173.015C193.531 166.745 193.531 160.475 193.531 154.015Z" fill="#D2F0FF"/>
<path d="M48.5312 211.015C56.4512 211.015 64.3713 211.015 72.5313 211.015C72.5313 213.655 72.5313 216.295 72.5313 219.015C64.6113 219.015 56.6912 219.015 48.5312 219.015C48.5312 216.375 48.5312 213.735 48.5312 211.015Z" fill="#D2F0FF"/>
<path d="M241.128 357.015H116.06C116.053 355.775 116.067 342.537 116.06 341.259C115.997 329.576 115.949 317.893 115.919 306.21C115.903 300.204 115.881 294.198 115.846 288.192C115.812 282.396 115.793 276.599 115.785 270.802C115.779 268.591 115.769 266.38 115.752 264.169C115.729 261.071 115.726 257.974 115.728 254.876L115.693 252.107C115.721 246.574 116.308 243.4 119.185 239.015C122.514 235.561 126.498 234.783 130.586 233.64C135.578 232.218 140.508 230.621 145.426 228.819C155.324 225.215 165.336 222.167 175.328 219.03C180.366 217.448 183.614 215.857 188.649 214.265C189.492 213.998 194.853 212 195.713 211.728C203.61 209.229 202.558 208.68 210.436 206.077L213.235 205.152C217.57 203.718 221.902 202.276 226.233 200.825L230.833 199.296L232.923 198.588L234.837 197.954L236.485 197.4C238.022 197.015 238.023 197.015 241.128 197.015V357.015Z" fill="#D2F0FF"/>
<path d="M116.439 187.015H110.229C110.434 194.803 110.641 202.591 110.85 210.379C110.92 213.02 110.99 215.662 111.06 218.304C111.392 230.95 111.727 243.588 112.318 256.219C112.597 262.364 112.649 268.486 112.606 274.64L112.596 277.718C112.587 280.15 112.573 282.582 112.558 285.015H126.53C128.081 288.964 129.63 292.915 131.174 296.868C131.7 298.213 132.227 299.558 132.755 300.901C133.513 302.83 134.267 304.762 135.021 306.694L136.4 310.218C137.398 313.015 137.398 313.015 137.398 315.015H140.503C141.389 298.878 144.83 292.548 136.816 284.577C130.529 278.324 122.731 279.67 115.663 280.015V275.015C132.092 273.711 136.927 276.607 136.949 276.62C136.949 276.62 140.168 279.107 141.515 281.515C142.203 282.144 142.736 283.533 143.365 284.921C146.058 290.863 145.565 295.647 145.403 301.827L145.351 305.661C145.305 308.78 145.241 311.897 145.161 315.015L147.571 314.999C150.512 314.981 153.454 314.969 156.395 314.96C157.669 314.955 158.944 314.948 160.219 314.939C162.047 314.927 163.876 314.921 165.704 314.917L167.441 314.901C168.812 314.901 170.184 314.953 171.554 315.015C172.33 316.015 172.33 316.015 172.418 318.79L172.405 322.456L172.398 326.411L172.378 330.577C172.374 331.97 172.37 333.362 172.367 334.755C172.358 338.175 172.346 353.595 172.33 357.015H0.03125C0.03125 317.745 0 266.475 0 226.015H28.7217V244.015H38.0371V225.015H42.6943V268.015H53.5625L53.5498 264.223C53.5358 259.578 53.5269 254.934 53.5195 250.29C53.5156 248.28 53.5106 246.27 53.5039 244.261C53.4945 241.371 53.4898 238.482 53.4863 235.593L53.4746 232.871L53.4736 230.324L53.4688 228.09C53.5621 226.015 53.5626 226.014 54.3389 222.015H66.7588C67.4036 243.36 67.6303 264.654 67.5352 286.015H77.626L77.6143 282.913C77.5885 273.155 77.6893 263.411 77.915 253.657C77.9657 251.449 78.0126 249.241 78.0586 247.032C78.2414 238.673 78.5647 230.348 78.9932 222.003C79.3012 215.367 79.4521 208.727 79.6025 202.083L79.6152 201.515C79.6489 200.094 79.6828 198.673 79.7168 197.253C79.7982 193.84 79.8775 190.427 79.9551 187.015H73.7451V175.015H116.439V187.015ZM137.398 345.015H142.056V330.015H160.686V345.015H166.12V323.015H137.398V345.015ZM27.9453 286.015H38.0371V249.015H27.9453V286.015ZM42.6943 274.015V286.015H52.7861V274.015H42.6943Z" fill="#D2F0FF"/>
</svg>
