<svg width="521" height="456" viewBox="0 0 521 456" fill="none" xmlns="http://www.w3.org/2000/svg">
<path d="M263.23 98.9854H256.249H233.755V111H263.23V98.9854Z" fill="#D2F0FF"/>
<path d="M492.23 278H297.23V321C300.35 321 300.35 321 302.658 320.302C307.615 318.52 312.581 316.808 317.578 315.221L319.528 314.606C320.886 314.177 322.243 313.749 323.6 313.321C325.774 312.637 327.947 311.953 330.12 311.267C336.416 309.278 339.118 308.292 345.415 306.309C349.346 305.07 356.87 301.832 360.8 300.59C362.308 300.113 363.817 299.636 365.325 299.16C375.437 295.983 380.106 293.649 390.121 290C397.943 287.081 401.423 287.958 408.927 291.352C414.627 293 426.474 297.633 428.55 298.5C434.777 300.645 448.014 305.5 454.6 307.5C459.918 309.702 465.109 311.244 470.488 313.188C474.271 314.54 478.03 315.906 481.743 317.551C484.391 318.766 484.391 318.766 492.23 321V278Z" fill="#D2F0FF"/>
<path d="M310.23 208C365.67 208 421.11 208 478.23 208C478.23 214.6 478.23 221.2 478.23 228C422.79 228 367.35 228 310.23 228C310.23 221.4 310.23 214.8 310.23 208Z" fill="#D2F0FF"/>
<path d="M230.838 181C242.848 181 254.857 181 267.23 181C267.23 185.29 267.23 189.58 267.23 194C265.186 194 263.142 194 261.036 194C261.065 194.78 261.094 195.559 261.124 196.362C261.4 203.747 261.673 211.131 261.945 218.516C262.084 222.311 262.225 226.107 262.367 229.902C262.504 233.572 262.639 237.242 262.773 240.912C262.824 242.304 262.876 243.697 262.929 245.09C263.003 247.057 263.074 249.023 263.146 250.99C263.187 252.104 263.228 253.219 263.271 254.368C263.381 258.91 263.359 263.456 263.359 268C253.905 268 244.451 268 234.71 268C234.965 262.39 235.221 256.78 235.484 251C234.052 252.605 232.625 254.219 231.221 255.865C229.29 258 229.29 258 227.105 259.9C223.317 263.499 220.759 266.293 220.011 272.372C219.661 277.459 219.749 282.526 219.853 287.625C219.858 289.41 219.86 291.195 219.858 292.98C219.86 297.323 219.915 301.659 219.998 306C216.676 306 213.355 306 209.932 306C209.779 299.577 209.667 293.156 209.592 286.731C209.561 284.548 209.519 282.364 209.465 280.181C209.39 277.036 209.355 273.893 209.327 270.746C209.295 269.776 209.263 268.806 209.231 267.807C209.228 263.76 209.249 261.085 211.272 257.871C212.833 256.099 214.429 254.542 216.127 253C218.932 249.723 218.932 249.723 221.691 246.381C223.775 243.835 225.842 241.572 228.225 239.504C231.903 236.12 234.929 233.108 235.984 227.204C236.55 220.814 236.458 214.475 236.284 208.058C236.245 203.336 236.613 198.687 237.033 194C234.989 194 232.945 194 230.838 194C230.838 189.71 230.838 185.42 230.838 181Z" fill="#D2F0FF"/>
<path d="M284.23 237C356.83 237 429.43 237 504.23 237C504.23 240.96 504.23 244.92 504.23 249C431.63 249 359.03 249 284.23 249C284.23 245.04 284.23 241.08 284.23 237Z" fill="#D2F0FF"/>
<path d="M238.823 111C245.332 111 251.84 111 258.546 111C260.357 156.123 260.357 156.123 260.123 177C252.574 177 245.024 177 237.245 177C237.15 162.594 237.527 148.265 238.034 133.875C238.111 131.645 238.187 129.414 238.262 127.184C238.446 121.789 238.634 116.394 238.823 111Z" fill="#D2F0FF"/>
<path d="M412.23 174H406.144H377.23V203H412.23V174Z" fill="#D2F0FF"/>
<path d="M124.23 140C134.79 140 145.35 140 156.23 140C156.23 142.97 156.23 145.94 156.23 149C154.428 149 152.625 149 150.767 149C150.767 165.83 150.767 182.66 150.767 200C144.07 200 137.374 200 130.474 200C130.474 183.17 130.474 166.34 130.474 149C128.414 149 126.353 149 124.23 149C124.23 146.03 124.23 143.06 124.23 140Z" fill="#D2F0FF"/>
<path d="M367.23 253C381.42 253 395.61 253 410.23 253C410.23 259.27 410.23 265.54 410.23 272C396.04 272 381.85 272 367.23 272C367.23 265.73 367.23 259.46 367.23 253Z" fill="#D2F0FF"/>
<path d="M433.23 253C443.46 253 453.69 253 464.23 253C464.23 259.27 464.23 265.54 464.23 272C454 272 443.77 272 433.23 272C433.23 265.73 433.23 259.46 433.23 253Z" fill="#D2F0FF"/>
<path d="M292.23 277C292.23 292.51 292.23 308.02 292.23 324C279.53 328 279.53 328 277.942 328C277.784 323.02 277.67 318.042 277.593 313.059C277.562 311.367 277.518 309.675 277.463 307.984C277.017 293.964 277.017 293.964 279.262 289.199C280.851 287.188 282.432 285.591 284.293 284C284.937 283.237 285.582 282.474 286.246 281.688C286.747 281.131 287.249 280.574 287.765 280C288.279 279.423 288.793 278.845 289.322 278.25C290.643 277 290.643 277 292.23 277Z" fill="#D2F0FF"/>
<path d="M496.318 278C498.745 278.708 500.032 279.444 501.847 281.688C502.285 282.221 502.722 282.755 503.172 283.305C503.843 284.144 503.843 284.144 504.527 285C504.983 285.559 505.439 286.119 505.908 286.695C510.141 291.898 510.141 291.898 510.23 295.418C510.23 296.936 510.226 298.455 510.218 299.973C510.217 300.77 510.216 301.568 510.215 302.39C510.211 304.947 510.201 307.505 510.191 310.062C510.187 311.792 510.184 313.522 510.181 315.252C510.172 319.501 510.159 323.751 510.143 328C507.982 327.359 505.822 326.712 503.663 326.062C503.046 325.88 502.43 325.698 501.795 325.51C497.173 324.113 497.173 324.113 496.318 323C496.247 321.588 496.228 320.171 496.231 318.756C496.231 317.855 496.231 316.954 496.231 316.026C496.235 315.047 496.239 314.067 496.243 313.059C496.244 312.061 496.245 311.064 496.246 310.036C496.251 306.837 496.26 303.637 496.27 300.438C496.274 298.274 496.277 296.111 496.28 293.947C496.289 288.631 496.302 283.316 496.318 278Z" fill="#D2F0FF"/>
<path d="M399.808 296C405.186 296.727 409.296 297.601 414.227 299.773C419.034 301.803 423.834 303.699 428.748 305.309C436.224 307.766 443.648 310.433 451.073 313.106C462.265 317.134 462.265 317.134 473.502 320.969C478.393 322.592 483.233 324.361 488.061 326.24C491.277 327.483 494.505 328.647 497.755 329.754C498.531 330.019 499.308 330.283 500.108 330.556C501.628 331.07 503.148 331.58 504.67 332.083C510.552 334.075 515.195 335.69 518.828 342.116C520.517 346.342 520.239 350.744 520.172 355.355C520.172 356.463 520.172 357.571 520.173 358.713C520.17 362.284 520.138 365.853 520.105 369.424C520.099 371.634 520.096 373.845 520.094 376.056C520.072 384.234 520.014 392.413 519.961 400.591C519.833 428.018 519.833 428.019 519.702 456H399.808V296Z" fill="#D2F0FF"/>
<path d="M301.23 253C307.83 253 314.43 253 321.23 253C321.23 259.27 321.23 265.54 321.23 272C314.63 272 308.03 272 301.23 272C301.23 265.73 301.23 259.46 301.23 253Z" fill="#D2F0FF"/>
<path d="M326.826 253C327.582 253.005 328.339 253.01 329.119 253.016C329.936 253.019 330.752 253.022 331.594 253.025C332.883 253.038 332.883 253.038 334.199 253.051C335.493 253.057 335.493 253.057 336.813 253.064C338.952 253.076 341.091 253.094 343.23 253.113C343.23 259.346 343.23 265.578 343.23 272C336.989 272 330.747 272 324.316 272C324.301 269.068 324.285 266.136 324.269 263.116C324.262 262.19 324.255 261.265 324.248 260.312C324.246 259.588 324.244 258.864 324.242 258.118C324.239 257.374 324.235 256.629 324.23 255.862C324.364 253.129 324.75 253.134 326.826 253Z" fill="#D2F0FF"/>
<path d="M468.23 253C474.5 253 480.77 253 487.23 253C487.23 259.27 487.23 265.54 487.23 272C480.96 272 474.69 272 468.23 272C468.23 265.73 468.23 259.46 468.23 253Z" fill="#D2F0FF"/>
<path d="M414.23 253C419.84 253 425.45 253 431.23 253C431.23 259.27 431.23 265.54 431.23 272C425.62 272 420.01 272 414.23 272C414.23 265.73 414.23 259.46 414.23 253Z" fill="#D2F0FF"/>
<path d="M347.23 253C352.84 253 358.45 253 364.23 253C364.23 259.27 364.23 265.54 364.23 272C358.62 272 353.01 272 347.23 272C347.23 265.73 347.23 259.46 347.23 253Z" fill="#D2F0FF"/>
<path d="M94.2305 411C99.8405 411 105.45 411 111.23 411C111.23 417.27 111.23 423.54 111.23 430C105.62 430 100.01 430 94.2305 430C94.2305 423.73 94.2305 417.46 94.2305 411Z" fill="#D2F0FF"/>
<path d="M81.2305 264C91.7905 264 102.35 264 113.23 264C113.23 265.98 113.23 267.96 113.23 270C102.67 270 92.1105 270 81.2305 270C81.2305 268.02 81.2305 266.04 81.2305 264Z" fill="#D2F0FF"/>
<path d="M41.2305 264C51.7905 264 62.3505 264 73.2305 264C73.2305 265.98 73.2305 267.96 73.2305 270C62.6705 270 52.1105 270 41.2305 270C41.2305 268.02 41.2305 266.04 41.2305 264Z" fill="#D2F0FF"/>
<path d="M202.23 310C210.15 310 218.07 310 226.23 310C226.23 312.64 226.23 315.28 226.23 318C218.31 318 210.39 318 202.23 318C202.23 315.36 202.23 312.72 202.23 310Z" fill="#D2F0FF"/>
<path d="M394.827 456H269.759C269.752 454.761 269.766 441.522 269.759 440.244C269.696 428.561 269.649 416.878 269.618 405.195C269.602 399.189 269.58 393.184 269.545 387.178C269.511 381.381 269.492 375.584 269.484 369.787C269.479 367.576 269.468 365.365 269.451 363.154C269.429 360.056 269.425 356.959 269.427 353.861L269.393 351.093C269.42 345.559 270.007 342.385 272.884 338C276.214 334.546 280.197 333.769 284.285 332.625C289.277 331.204 294.208 329.607 299.125 327.805C309.024 324.2 319.035 321.152 329.027 318.016C334.065 316.433 337.313 314.842 342.349 313.25C343.191 312.984 348.552 310.985 349.412 310.713C357.31 308.214 356.257 307.665 364.135 305.063L366.935 304.138C371.269 302.704 375.602 301.261 379.933 299.811L384.532 298.281L386.622 297.573L388.536 296.939L390.185 296.386C391.721 296 391.722 296 394.827 296V456Z" fill="#D2F0FF"/>
<path d="M156.028 217H150.595V444H153.699V325H162.238V222H172.33V325H182.421V343H191.736V324H196.394V367H207.262L207.249 363.208C207.235 358.564 207.226 353.92 207.219 349.275C207.215 347.266 207.21 345.256 207.203 343.246C207.194 340.357 207.189 337.467 207.186 334.578L207.174 331.856L207.173 329.31L207.168 327.075C207.261 325 207.262 325 208.038 321H220.458C221.103 342.346 221.329 363.639 221.234 385H231.325L231.313 381.898C231.288 372.14 231.389 362.397 231.614 352.643C231.665 350.434 231.712 348.226 231.758 346.018C231.941 337.658 232.264 329.334 232.692 320.988C233 314.353 233.151 307.713 233.302 301.069L233.314 300.5C233.348 299.079 233.382 297.659 233.416 296.238C233.497 292.826 233.577 289.413 233.654 286H227.444V274H270.139V286H263.929C264.133 293.788 264.34 301.576 264.549 309.364C264.62 312.006 264.689 314.647 264.759 317.289C265.092 329.935 265.426 342.573 266.018 355.204C266.296 361.349 266.348 367.471 266.306 373.625L266.295 376.703C266.286 379.135 266.272 381.568 266.257 384H280.229C281.78 387.949 283.329 391.9 284.873 395.854C285.399 397.198 285.926 398.543 286.454 399.887C287.212 401.816 287.966 403.747 288.72 405.68L290.1 409.203C291.097 412 291.098 412 291.098 414H294.202C295.088 397.863 298.529 391.533 290.516 383.562C284.229 377.309 276.43 378.656 269.362 379V374C285.792 372.696 290.627 375.592 290.648 375.605C290.648 375.605 293.867 378.093 295.214 380.5C295.902 381.129 296.435 382.518 297.064 383.906C299.757 389.848 299.264 394.632 299.103 400.812L299.05 404.646C299.004 407.766 298.94 410.882 298.86 414L301.271 413.984C304.212 413.966 307.153 413.955 310.094 413.945C311.368 413.94 312.643 413.933 313.918 413.925C315.746 413.913 317.575 413.907 319.403 413.902L321.141 413.887C322.512 413.887 323.883 413.938 325.253 414C326.029 415 326.029 415 326.117 417.775L326.104 421.441L326.098 425.396L326.077 429.562C326.073 430.955 326.07 432.348 326.066 433.74C326.057 437.16 326.045 452.58 326.029 456H30.2744V318L45.0234 310L45.7998 274H67.5352V299C72.7969 296.044 73.4638 296.26 77.2305 294.437C80.7369 292.739 83.7305 291 86.165 290V274H109.453V291L113.334 293L130.412 305V217H124.979V206H156.028V217ZM291.098 444H295.755V429H314.385V444H319.819V422H291.098V444ZM181.645 385H191.736V348H181.645V385ZM196.394 373V385H206.485V373H196.394ZM44.2695 377.937H61.2695V357.937H44.2695V377.937ZM81.2305 377.937H98.2305V357.937H81.2305V377.937ZM119.23 377.937H136.23V357.937H119.23V377.937ZM44.2471 336H136.622V328H44.2471V336Z" fill="#D2F0FF"/>
</svg>
